<svg id="Layer_1" data-name="Layer 1" xmlns="http://www.w3.org/2000/svg" xmlns:xlink="http://www.w3.org/1999/xlink" viewBox="0 0 210.59 51.12"><defs><style>.cls-1{fill:url(#Blue);}.cls-2{fill:url(#Blue-2);}.cls-3{fill:#fff;}.cls-4{fill:#040a28;}.cls-5{fill:url(#Blue-3);}.cls-6{fill:url(#Blue-4);}.cls-7{fill:url(#Blue-5);}.cls-8{fill:url(#Blue-6);}.cls-9{fill:url(#Blue-7);}.cls-10{fill:url(#Blue-8);}.cls-11{fill:url(#Blue-9);}</style><linearGradient id="Blue" x1="41.36" y1="17.37" x2="41.36" y2="30.71" gradientUnits="userSpaceOnUse"><stop offset="0" stop-color="#2bc4f3"/><stop offset="0.5" stop-color="#00aeee"/><stop offset="1" stop-color="#0095da"/></linearGradient><linearGradient id="Blue-2" x1="32.85" y1="4.24" x2="32.85" y2="44.71" xlink:href="#Blue"/><linearGradient id="Blue-3" x1="24.41" y1="2.41" x2="24.41" y2="48.87" xlink:href="#Blue"/><linearGradient id="Blue-4" x1="87.33" y1="43.6" x2="95.36" y2="43.6" xlink:href="#Blue"/><linearGradient id="Blue-5" x1="106.69" y1="43.59" x2="107.37" y2="43.59" xlink:href="#Blue"/><linearGradient id="Blue-6" x1="119.14" y1="43.6" x2="126.28" y2="43.6" xlink:href="#Blue"/><linearGradient id="Blue-7" x1="137.87" y1="43.65" x2="144.65" y2="43.65" xlink:href="#Blue"/><linearGradient id="Blue-8" x1="155.75" y1="43.59" x2="164.45" y2="43.59" xlink:href="#Blue"/><linearGradient id="Blue-9" x1="175.85" y1="43.59" x2="181.53" y2="43.59" xlink:href="#Blue"/></defs><path class="cls-1" d="M36.71,31.32a3.6,3.6,0,0,1-.1-.51l9.29-5.36.21.28a16.69,16.69,0,0,1-8.94,7.09A12.67,12.67,0,0,0,36.71,31.32Z"/><path class="cls-2" d="M32.67,51.05c-4.57.14-9.15,0-13.72,0A16.93,16.93,0,0,1,17,50.83V40.24A19.26,19.26,0,0,1,19.31,40c3.84,0,7.68,0,11.53,0,3.58,0,5.83-1.5,6.4-4A19.59,19.59,0,0,0,47.7,28.76C51.42,39,44,50.69,32.67,51.05Z"/><path class="cls-3" d="M5.52,51.06A5.36,5.36,0,0,1,0,45.66,5.48,5.48,0,0,1,5.37,40,5.65,5.65,0,0,1,11,45.6,5.47,5.47,0,0,1,5.52,51.06Z"/><path class="cls-4" d="M34.23.31C29-.17,23.63.07,18.32,0a5,5,0,0,0-1.24.34V10.88c1,.08,1.75.2,2.52.2,3.9,0,7.79,0,11.69,0a6,6,0,0,1,5.24,2.59,5.65,5.65,0,0,1-4.62,8.85c-6.38.18-12.76.06-19.15.05a9.18,9.18,0,0,1-1.68-.35c0-3.76,0-7.41,0-11.07s0-7.28-.05-11H.16V33.52c.94.09,1.71.2,2.47.2q14.16,0,28.3,0a24,24,0,0,0,3.88-.32,14.5,14.5,0,0,0,2.36-.57,16.94,16.94,0,0,0,11.5-16.08C48.55,8.35,42.37,1,34.23.31Z"/><path class="cls-5" d="M48.67,16.74a16.94,16.94,0,0,1-11.5,16.08,14.5,14.5,0,0,1-2.36.57,24,24,0,0,1-3.88.32q-14.14,0-28.3,0c-.76,0-1.53-.11-2.47-.2V.2H11c0,3.69,0,7.33.05,11s0,7.31,0,11.07a9.18,9.18,0,0,0,1.68.35c6.39,0,12.77.13,19.15-.05a5.65,5.65,0,0,0,4.62-8.85,6,6,0,0,0-5.24-2.59c-3.9,0-7.79,0-11.69,0-.77,0-1.54-.12-2.52-.2V.35A5,5,0,0,1,18.32,0C23.63.07,29-.17,34.23.31,42.37,1,48.55,8.35,48.67,16.74Z"/><path class="cls-3" d="M81,26.08a5.44,5.44,0,0,1-.34,2,5.84,5.84,0,0,1-.94,1.65A7.37,7.37,0,0,1,78.29,31a8.47,8.47,0,0,1-1.71,1,9.66,9.66,0,0,1-1.89.6,9.76,9.76,0,0,1-1.92.19H58.27V8.12H71.52a14.77,14.77,0,0,1,1.83.12,11.88,11.88,0,0,1,1.88.41A8.86,8.86,0,0,1,77,9.37a5.65,5.65,0,0,1,1.46,1.08,4.8,4.8,0,0,1,1,1.48,4.67,4.67,0,0,1,.37,1.92,4.24,4.24,0,0,1-.41,1.87,5.19,5.19,0,0,1-1.1,1.5,8.3,8.3,0,0,1-1.6,1.16,13.57,13.57,0,0,1-1.89.88,12.77,12.77,0,0,1,2.37.91,7.84,7.84,0,0,1,2,1.39,6.09,6.09,0,0,1,1.35,1.94A6.35,6.35,0,0,1,81,26.08ZM72.89,14.45a3.86,3.86,0,0,0-1.1-3,4.67,4.67,0,0,0-3.15-1H65.06v8h3a7.16,7.16,0,0,0,1.8-.23,4.7,4.7,0,0,0,1.55-.72,3.6,3.6,0,0,0,1.08-1.24A3.74,3.74,0,0,0,72.89,14.45Zm1.2,11.2a6.8,6.8,0,0,0-.26-1.89A4.12,4.12,0,0,0,73,22.23a3.7,3.7,0,0,0-1.32-1,4.53,4.53,0,0,0-1.88-.37H65.06v9.53h4.18A5.35,5.35,0,0,0,71.18,30a4.67,4.67,0,0,0,1.54-1,4.23,4.23,0,0,0,1-1.49A5,5,0,0,0,74.09,25.65Z"/><path class="cls-3" d="M102.74,32.77H85V8.12h17.71v3.15H91.83v7.62h8.42V22H91.83v7.6h10.91Z"/><path class="cls-3" d="M127,8.12l-8,14.29V32.77h-6.8v-10L104.12,8.12h6.94l5.36,12.39,5.75-12.39Z"/><path class="cls-3" d="M154.34,20.41a13.53,13.53,0,0,1-1,5.37,11.78,11.78,0,0,1-2.85,4,12.64,12.64,0,0,1-4.29,2.55,16.71,16.71,0,0,1-10.76,0,12.64,12.64,0,0,1-4.29-2.55,11.78,11.78,0,0,1-2.85-4,13.53,13.53,0,0,1-1-5.37,13.86,13.86,0,0,1,1-5.42,11.6,11.6,0,0,1,2.83-4,12.25,12.25,0,0,1,4.29-2.53,16.89,16.89,0,0,1,10.82,0A12.25,12.25,0,0,1,150.5,11a11.47,11.47,0,0,1,2.83,4A13.68,13.68,0,0,1,154.34,20.41Zm-6.91,0c0-.75,0-1.52-.11-2.31a14.51,14.51,0,0,0-.37-2.3,10.69,10.69,0,0,0-.75-2.08A6,6,0,0,0,145,12a5.46,5.46,0,0,0-1.78-1.15,6.42,6.42,0,0,0-2.42-.42,6.55,6.55,0,0,0-2.45.42A5.44,5.44,0,0,0,136.57,12a5.93,5.93,0,0,0-1.2,1.7,10.65,10.65,0,0,0-.73,2.08,15.2,15.2,0,0,0-.36,2.29c-.07.8-.11,1.57-.11,2.34s0,1.52.11,2.31a14.21,14.21,0,0,0,.37,2.29,10.93,10.93,0,0,0,.75,2.08,5.78,5.78,0,0,0,1.21,1.7A5.44,5.44,0,0,0,138.38,30a6.42,6.42,0,0,0,2.42.43,5.92,5.92,0,0,0,2.36-.44,5.51,5.51,0,0,0,1.75-1.18A6.67,6.67,0,0,0,146.13,27a9.85,9.85,0,0,0,.77-2.09,15.4,15.4,0,0,0,.41-2.27A22.11,22.11,0,0,0,147.43,20.41Z"/><path class="cls-3" d="M161.72,32.77h-3.15V8.12H163l15,16.93V8.12h3.14V32.77h-4.42l-15-16.92Z"/><path class="cls-3" d="M210.59,20.41a12,12,0,0,1-.48,3.42,11.47,11.47,0,0,1-1.34,3,12.24,12.24,0,0,1-2.06,2.48,12.68,12.68,0,0,1-2.65,1.87,13.45,13.45,0,0,1-3.1,1.19,13.71,13.71,0,0,1-3.4.42H186.69V8.12h10.87a14,14,0,0,1,6.49,1.58,13.17,13.17,0,0,1,2.65,1.86A12.4,12.4,0,0,1,208.77,14a11.47,11.47,0,0,1,1.34,3A12,12,0,0,1,210.59,20.41Zm-6.9,0a14.73,14.73,0,0,0-.48-3.81,9.37,9.37,0,0,0-1.52-3.18,7.38,7.38,0,0,0-2.61-2.17,8.25,8.25,0,0,0-3.79-.81h-1.8V30.38h1.8a8.18,8.18,0,0,0,3.76-.82,7.5,7.5,0,0,0,2.61-2.19,9.41,9.41,0,0,0,1.54-3.18A14.14,14.14,0,0,0,203.69,20.41Z"/><path class="cls-6" d="M95.36,39.16l-3.64,8.89H91l-3.65-8.89h.74l3.28,8.1,3.28-8.1Z"/><path class="cls-7" d="M106.69,48V39.16h.68V48Z"/><path class="cls-8" d="M125.46,40.87a2.87,2.87,0,0,0-2.69-1.2c-1,0-2.68.38-2.68,1.79,0,1.13,1.21,1.4,2.71,1.68,1.71.33,3.48.63,3.48,2.54s-2,2.48-3.51,2.48a4,4,0,0,1-3.63-1.92l.61-.31a3.45,3.45,0,0,0,3,1.61c1.09,0,2.83-.3,2.83-1.87,0-1.33-1.46-1.62-2.92-1.9-1.62-.32-3.28-.65-3.28-2.28,0-1.87,1.92-2.46,3.37-2.46A3.41,3.41,0,0,1,126,40.54Z"/><path class="cls-9" d="M144.65,39.16v5.51a3.39,3.39,0,1,1-6.78,0V39.16h.67v5.51a2.72,2.72,0,1,0,5.44,0V39.16Z"/><path class="cls-10" d="M163.71,48l-1-2.17h-5.3l-1,2.17h-.73l4-8.86h.75l4,8.86Zm-1.24-2.81-2.38-5.39-2.38,5.39Z"/><path class="cls-11" d="M176.54,39.16v8.22h5V48h-5.68V39.16Z"/></svg>