<svg id="Layer_1" data-name="Layer 1" xmlns="http://www.w3.org/2000/svg" xmlns:xlink="http://www.w3.org/1999/xlink" viewBox="0 0 211.094 51.973"><defs><style>.cls-1{fill:url(#Blue);}.cls-2{fill:url(#Blue-2);}.cls-3{stroke:#000;stroke-miterlimit:10;}.cls-4{fill:#040a28;}.cls-5{fill:url(#Blue-3);}.cls-6{fill:url(#Blue_2);}.cls-7{fill:url(#Blue_2-2);}.cls-8{fill:url(#Blue_2-3);}.cls-9{fill:url(#Blue_2-4);}.cls-10{fill:url(#Blue_2-5);}.cls-11{fill:url(#Blue_2-6);}</style><linearGradient id="Blue" x1="41.86" y1="17.784" x2="41.86" y2="31.116" gradientUnits="userSpaceOnUse"><stop offset="0" stop-color="#2bc4f3"/><stop offset="0.5" stop-color="#00aeee"/><stop offset="1" stop-color="#0095da"/></linearGradient><linearGradient id="Blue-2" x1="33.593" y1="4.654" x2="33.593" y2="45.12" xlink:href="#Blue"/><linearGradient id="Blue-3" x1="25.14" y1="2.406" x2="25.14" y2="48.873" xlink:href="#Blue"/><linearGradient id="Blue_2" x1="87.833" y1="44.016" x2="95.863" y2="44.016" gradientUnits="userSpaceOnUse"><stop offset="0" stop-color="#4d4d4d"/><stop offset="0.5" stop-color="#1f1f1f"/><stop offset="1"/></linearGradient><linearGradient id="Blue_2-2" x1="107.195" y1="44.003" x2="107.865" y2="44.003" xlink:href="#Blue_2"/><linearGradient id="Blue_2-3" x1="119.637" y1="44.009" x2="126.781" y2="44.009" xlink:href="#Blue_2"/><linearGradient id="Blue_2-4" x1="138.365" y1="44.066" x2="145.154" y2="44.066" xlink:href="#Blue_2"/><linearGradient id="Blue_2-5" x1="156.245" y1="44.003" x2="164.947" y2="44.003" xlink:href="#Blue_2"/><linearGradient id="Blue_2-6" x1="176.354" y1="44.003" x2="182.028" y2="44.003" xlink:href="#Blue_2"/></defs><path class="cls-1" d="M37.211,31.727a3.242,3.242,0,0,1-.1-.51c3.075-1.768,6.079-3.5,9.287-5.355.062.082.133.174.215.276a16.679,16.679,0,0,1-8.94,7.091A12.626,12.626,0,0,0,37.211,31.727Z"/><path class="cls-2" d="M33.417,51.458c-4.578.143-9.155.041-13.722.03a15.987,15.987,0,0,1-1.921-.245v-10.6a20.783,20.783,0,0,1,2.278-.245c3.842-.02,7.684,0,11.526-.02,3.586-.01,5.834-1.5,6.406-3.985a19.61,19.61,0,0,0,10.463-7.224C52.166,39.442,44.708,51.1,33.417,51.458Z"/><path class="cls-3" d="M6.018,51.473A5.359,5.359,0,0,1,.5,46.072a5.478,5.478,0,0,1,5.367-5.618,5.663,5.663,0,0,1,5.666,5.556A5.475,5.475,0,0,1,6.018,51.473Z"/><path class="cls-4" d="M35,.306C29.713-.174,24.354.071,19.016.01a5.32,5.32,0,0,0-1.242.337V10.881c.985.082,1.755.194,2.525.194,3.921.021,7.833.01,11.744.021a5.991,5.991,0,0,1,5.266,2.6,5.644,5.644,0,0,1-4.64,8.849c-6.406.183-12.822.061-19.238.051a9.743,9.743,0,0,1-1.683-.348c0-3.76.01-7.418,0-11.076C11.737,7.53,11.717,3.892,11.7.2H.774v33.32c.944.081,1.714.194,2.484.194q14.213.015,28.426-.011a24.961,24.961,0,0,0,3.9-.316,14.4,14.4,0,0,0,2.371-.572,16.747,16.747,0,0,0,8.982-7.092,16.539,16.539,0,0,0,2.567-8.991C49.392,8.347,43.181,1.042,35,.306Z"/><path class="cls-5" d="M49.505,16.736a16.539,16.539,0,0,1-2.567,8.991,16.747,16.747,0,0,1-8.982,7.092,14.4,14.4,0,0,1-2.371.572,24.961,24.961,0,0,1-3.9.316q-14.214.047-28.426.011c-.77,0-1.54-.113-2.484-.194V.2H11.7c.021,3.688.041,7.326.052,10.963.01,3.658,0,7.316,0,11.076a9.743,9.743,0,0,0,1.683.348c6.416.01,12.832.132,19.238-.051a5.644,5.644,0,0,0,4.64-8.849,5.991,5.991,0,0,0-5.266-2.6c-3.911-.011-7.823,0-11.744-.021-.77,0-1.54-.112-2.525-.194V.347A5.32,5.32,0,0,1,19.016.01c5.338.061,10.7-.184,15.983.3C43.181,1.042,49.392,8.347,49.505,16.736Z"/><path d="M81.472,26.488a5.493,5.493,0,0,1-.342,1.953,5.99,5.99,0,0,1-.942,1.652,7.337,7.337,0,0,1-1.4,1.327,8.633,8.633,0,0,1-1.712.976,9.519,9.519,0,0,1-1.892.59,9.632,9.632,0,0,1-1.917.2h-14.5V8.526H72.021a13.928,13.928,0,0,1,1.832.128,12.245,12.245,0,0,1,1.875.4,9.4,9.4,0,0,1,1.746.718,5.946,5.946,0,0,1,1.456,1.087,4.994,4.994,0,0,1,.993,1.482,4.735,4.735,0,0,1,.368,1.918,4.188,4.188,0,0,1-.411,1.866,5.215,5.215,0,0,1-1.1,1.5,8.012,8.012,0,0,1-1.593,1.165,14.023,14.023,0,0,1-1.892.882,12.7,12.7,0,0,1,2.371.907,7.936,7.936,0,0,1,1.97,1.387,6.144,6.144,0,0,1,1.344,1.943A6.315,6.315,0,0,1,81.472,26.488ZM73.39,14.862a3.827,3.827,0,0,0-1.105-3.047,4.641,4.641,0,0,0-3.141-.959H65.565v8h3a7,7,0,0,0,1.8-.232,4.641,4.641,0,0,0,1.549-.719,3.593,3.593,0,0,0,1.079-1.241A3.77,3.77,0,0,0,73.39,14.862Zm1.2,11.2a6.755,6.755,0,0,0-.257-1.893,4.2,4.2,0,0,0-.788-1.523,3.707,3.707,0,0,0-1.327-1.011,4.433,4.433,0,0,0-1.875-.368H65.565v9.52h4.178a5.334,5.334,0,0,0,1.935-.342,4.621,4.621,0,0,0,1.541-.959A4.26,4.26,0,0,0,74.23,28,5.043,5.043,0,0,0,74.589,26.061Z"/><path d="M103.236,33.184h-17.7V8.526h17.7v3.151H92.328V19.3h8.425v3.134H92.328v7.6h10.908Z"/><path d="M127.465,8.526l-7.979,14.3v10.36h-6.8V23.2L104.623,8.526h6.935l5.359,12.4,5.754-12.4Z"/><path d="M154.845,20.82a13.474,13.474,0,0,1-1.027,5.369,11.649,11.649,0,0,1-2.843,4.049,12.568,12.568,0,0,1-4.3,2.552,16.685,16.685,0,0,1-10.753,0,12.568,12.568,0,0,1-4.3-2.552,11.662,11.662,0,0,1-2.843-4.049,13.474,13.474,0,0,1-1.027-5.369,13.7,13.7,0,0,1,1.019-5.419A11.517,11.517,0,0,1,131.6,11.36a12.448,12.448,0,0,1,4.289-2.534,17.036,17.036,0,0,1,10.821,0A12.462,12.462,0,0,1,151,11.36a11.527,11.527,0,0,1,2.825,4.041A13.7,13.7,0,0,1,154.845,20.82Zm-6.918,0q0-1.13-.1-2.311a15.06,15.06,0,0,0-.376-2.294,10.654,10.654,0,0,0-.745-2.089,6.073,6.073,0,0,0-1.208-1.7,5.354,5.354,0,0,0-1.771-1.148,6.45,6.45,0,0,0-2.423-.418,6.561,6.561,0,0,0-2.449.418,5.407,5.407,0,0,0-1.78,1.139,5.852,5.852,0,0,0-1.2,1.7,10.747,10.747,0,0,0-.727,2.081,15.465,15.465,0,0,0-.368,2.294q-.1,1.191-.1,2.337,0,1.131.1,2.313a14.7,14.7,0,0,0,.377,2.285A10.611,10.611,0,0,0,135.9,27.5a6.065,6.065,0,0,0,1.207,1.7,5.42,5.42,0,0,0,1.771,1.156,6.311,6.311,0,0,0,2.424.428,5.916,5.916,0,0,0,2.362-.436,5.479,5.479,0,0,0,1.747-1.182,6.588,6.588,0,0,0,1.224-1.729,10.568,10.568,0,0,0,.771-2.089,15.505,15.505,0,0,0,.4-2.269A22.043,22.043,0,0,0,147.927,20.82Z"/><path d="M162.225,33.184h-3.151V8.526h4.418l14.983,16.935V8.526h3.134V33.184h-4.418L162.225,16.266Z"/><path d="M211.094,20.82a11.914,11.914,0,0,1-1.823,6.405,12.211,12.211,0,0,1-2.064,2.474,12.623,12.623,0,0,1-2.645,1.875,13.881,13.881,0,0,1-6.5,1.61H187.191V8.526h10.873a13.95,13.95,0,0,1,6.481,1.584,12.793,12.793,0,0,1,2.653,1.858,11.993,11.993,0,0,1,2.073,2.457,11.8,11.8,0,0,1,1.344,2.979A11.955,11.955,0,0,1,211.094,20.82Zm-6.9,0a14.522,14.522,0,0,0-.489-3.809,9.264,9.264,0,0,0-1.514-3.176,7.4,7.4,0,0,0-2.612-2.175,8.279,8.279,0,0,0-3.793-.8h-1.8v19.93h1.8a8.123,8.123,0,0,0,3.759-.813,7.517,7.517,0,0,0,2.619-2.192,9.416,9.416,0,0,0,1.534-3.176A14.153,14.153,0,0,0,204.194,20.82Z"/><path class="cls-6" d="M95.863,39.57l-3.648,8.891h-.734L87.833,39.57h.735l3.28,8.106,3.28-8.106Z"/><path class="cls-7" d="M107.2,48.436V39.57h.67v8.866Z"/><path class="cls-8" d="M125.957,41.28a2.867,2.867,0,0,0-2.685-1.2c-1.038,0-2.685.38-2.685,1.8,0,1.128,1.216,1.393,2.71,1.672,1.71.33,3.484.633,3.484,2.546-.013,2-2.027,2.482-3.509,2.482a3.989,3.989,0,0,1-3.635-1.925l.608-.3a3.475,3.475,0,0,0,3.027,1.608c1.09,0,2.824-.3,2.824-1.874.013-1.33-1.456-1.621-2.912-1.9-1.621-.316-3.28-.646-3.28-2.28-.039-1.874,1.912-2.457,3.368-2.457a3.408,3.408,0,0,1,3.242,1.508Z"/><path class="cls-9" d="M145.154,39.57v5.51a3.4,3.4,0,1,1-6.789,0V39.57h.671v5.51a2.726,2.726,0,1,0,5.447,0V39.57Z"/><path class="cls-10" d="M164.212,48.436l-.975-2.179h-5.294l-.963,2.179h-.735l3.977-8.866h.748l3.977,8.866Zm-1.241-2.812-2.381-5.4-2.382,5.4Z"/><path class="cls-11" d="M177.037,39.57v8.22h4.991v.646h-5.674V39.57Z"/></svg>